<svg width="134" height="30" viewBox="0 0 134 30" fill="none" xmlns="http://www.w3.org/2000/svg">
<path d="M0.599976 29V0.999999H15C17.8 0.999999 20 1.68 21.6 3.04C23.2 4.4 24 6.12 24 8.2C24 10.2 23.2666 11.7733 21.8 12.92C21.1066 13.4 20.3733 13.76 19.6 14V14.2C20.5333 14.3867 21.4266 14.76 22.28 15.32C24.0933 16.52 25 18.3467 25 20.8C25 23.2 24.0933 25.1733 22.28 26.72C20.4933 28.24 18 29 14.8 29H0.599976ZM6.59998 12H14.2C15.3466 12 16.2266 11.7467 16.84 11.24C17.48 10.7067 17.8 10.0267 17.8 9.2C17.8 8.37333 17.48 7.70667 16.84 7.2C16.2266 6.66667 15.3466 6.4 14.2 6.4H6.59998V12ZM6.59998 23.6H14.4C15.8666 23.6 16.96 23.3067 17.68 22.72C18.4266 22.1333 18.8 21.36 18.8 20.4C18.8 19.44 18.4266 18.6667 17.68 18.08C16.96 17.4933 15.8666 17.2 14.4 17.2H6.59998V23.6Z" fill="#F3EFE4"/>
<path d="M28.5984 21V8.6H34.1984V20.2C34.1984 21.6933 34.5584 22.84 35.2784 23.64C36.0251 24.4133 37.0651 24.8 38.3984 24.8C39.7317 24.8 40.8651 24.2933 41.7984 23.28C42.7317 22.2667 43.1984 20.9733 43.1984 19.4V8.6H48.7984V29H43.1984V26.2H42.9984C42.6784 26.8133 42.1851 27.3867 41.5184 27.92C40.0784 29.04 38.4384 29.6 36.5984 29.6C34.0651 29.6 32.0917 28.8667 30.6784 27.4C29.2917 25.9333 28.5984 23.8 28.5984 21Z" fill="#F3EFE4"/>
<path d="M53.7278 5.12C53.1145 4.50667 52.8078 3.8 52.8078 3C52.8078 2.2 53.1145 1.50667 53.7278 0.92C54.3678 0.306667 55.1278 0 56.0078 0C56.8878 0 57.6345 0.306667 58.2478 0.92C58.8878 1.50667 59.2078 2.2 59.2078 3C59.2078 3.8 58.8878 4.50667 58.2478 5.12C57.6345 5.70667 56.8878 6 56.0078 6C55.1278 6 54.3678 5.70667 53.7278 5.12ZM53.2078 29V8.6H58.8078V29H53.2078Z" fill="#F3EFE4"/>
<path d="M63.2078 29V0.999999H68.8078V24.2H73.4078V29H63.2078Z" fill="#F3EFE4"/>
<path d="M77.7003 26.64C75.9136 24.64 75.0203 22.0267 75.0203 18.8C75.0203 15.5733 75.9136 12.9733 77.7003 11C79.5136 9 81.7536 8 84.4203 8C86.207 8 87.8203 8.53333 89.2603 9.6C89.8736 10.1067 90.3936 10.64 90.8203 11.2H91.0203V0.999999H96.6203V29H91.0203V26.4H90.8203C90.3936 26.96 89.8736 27.4933 89.2603 28C87.8203 29.0667 86.207 29.6 84.4203 29.6C81.7536 29.6 79.5136 28.6133 77.7003 26.64ZM82.2203 14.4C81.287 15.4667 80.8203 16.9333 80.8203 18.8C80.8203 20.6667 81.287 22.1333 82.2203 23.2C83.1536 24.2667 84.3536 24.8 85.8203 24.8C87.367 24.8 88.6203 24.28 89.5803 23.24C90.5403 22.1733 91.0203 20.6933 91.0203 18.8C91.0203 16.9067 90.5403 15.44 89.5803 14.4C88.6203 13.3333 87.367 12.8 85.8203 12.8C84.3536 12.8 83.1536 13.3333 82.2203 14.4Z" fill="#F3EFE4"/>
<path d="M99.2203 29L106.42 15.2L99.6203 0.999999H106.02L111.22 12.4H113.22L118.42 0.999999H124.82L118.02 15.2L125.22 29H118.74L113.22 18H111.22L105.7 29H99.2203Z" fill="#F3EFE4"/>
<path d="M127.937 28.68C127.324 28.0667 127.017 27.3067 127.017 26.4C127.017 25.4933 127.324 24.7333 127.937 24.12C128.55 23.5067 129.311 23.2 130.217 23.2C131.124 23.2 131.884 23.5067 132.497 24.12C133.11 24.7333 133.417 25.4933 133.417 26.4C133.417 27.3067 133.11 28.0667 132.497 28.68C131.884 29.2933 131.124 29.6 130.217 29.6C129.311 29.6 128.55 29.2933 127.937 28.68Z" fill="#F3EFE4"/>
<path d="M127.937 28.6802C127.324 28.0669 127.017 27.3069 127.017 26.4002C127.017 25.4935 127.324 24.7335 127.937 24.1202C128.55 23.5069 129.31 23.2002 130.217 23.2002C131.124 23.2002 131.884 23.5069 132.497 24.1202C133.11 24.7335 133.417 25.4935 133.417 26.4002C133.417 27.3069 133.11 28.0669 132.497 28.6802C131.884 29.2935 131.124 29.6002 130.217 29.6002C129.31 29.6002 128.55 29.2935 127.937 28.6802Z" fill="#EEF487"/>
</svg>
